# xmcd
#
# Track frame offsets:
#	150
#	17971
#	38448
#	55920
#	74705
#	106775
#	128108
#	151086
#	171832
#	190359
#
# Disc length: 3013 seconds
# Revision: 0
# Processed by: cddbd v1.5.2PL0 Copyright (c) Steve Scherf et al.
# Submitted via: dBpowerAMP V12.0
#
DISCID=810bc30a
DTITLE=Blue Rodeo - Outskirts [2012 Remix]
DYEAR=1987
DGENRE=Country
TTITLE0=Heart Like Mine
TTITLE1=Rose-Coloured Glasses
TTITLE2=Rebel
TTITLE3=Joker's Wild
TTITLE4=Piranha Pool
TTITLE5=Outskirts
TTITLE6=Underground
TTITLE7=5 Will Get You Six
TTITLE8=Try
TTITLE9=Floating
EXTD=
EXTT0=
EXTT1=
EXTT2=
EXTT3=
EXTT4=
EXTT5=
EXTT6=
EXTT7=
EXTT8=
EXTT9=
PLAYORDER=
